<?xml version="1.0" standalone="no"?>
<!DOCTYPE svg PUBLIC "-//W3C//DTD SVG 20010904//EN"
 "http://www.w3.org/TR/2001/REC-SVG-20010904/DTD/svg10.dtd">
<svg version="1.0" xmlns="http://www.w3.org/2000/svg"
 width="615.000000pt" height="411.000000pt" viewBox="0 0 615.000000 411.000000"
 preserveAspectRatio="xMidYMid meet">
<metadata>
Created by potrace 1.16, written by Peter Selinger 2001-2019
</metadata>
<g transform="translate(0.000000,411.000000) scale(0.100000,-0.100000)"
fill="#000000" stroke="none">
<path d="M20 2933 c0 -643 -3 -1320 -7 -1503 l-6 -333 34 7 c18 3 128 44 244
91 285 114 373 133 476 101 24 -7 121 -48 214 -91 l170 -78 315 7 c202 4 327
3 349 -4 19 -5 36 -8 38 -6 3 2 -9 31 -26 63 -16 33 -39 88 -51 122 -24 74
-60 274 -60 340 0 149 101 274 250 310 56 14 101 3 117 -28 10 -22 12 -19 21
30 6 30 13 98 17 151 3 53 10 112 16 130 14 49 11 93 -8 133 -20 42 -30 44
-44 8 -10 -27 -9 -39 6 -75 4 -11 3 -18 -4 -18 -13 0 -41 53 -41 78 0 20 -28
83 -41 92 -4 3 -17 27 -28 53 -20 46 -20 50 -4 80 9 18 15 47 15 66 -1 26 7
43 33 73 22 23 35 48 35 65 0 14 11 46 25 70 19 32 32 43 50 43 15 0 31 10 41
25 20 31 52 32 112 5 37 -17 42 -23 42 -52 0 -18 -4 -28 -8 -23 -4 6 -18 12
-31 12 -22 2 -23 -1 -19 -47 4 -39 14 -60 55 -112 63 -79 108 -160 123 -219
10 -38 9 -52 -4 -84 -9 -20 -16 -54 -16 -74 0 -44 41 -234 125 -576 67 -272
89 -396 81 -457 -4 -31 -30 -171 -38 -208 -3 -15 60 -38 108 -39 18 -1 34 -7
37 -14 3 -8 31 -19 64 -25 32 -5 69 -13 82 -18 21 -6 23 -5 19 14 -3 12 0 26
7 32 7 5 80 16 164 22 135 11 151 14 151 30 0 20 -36 38 -78 38 -26 1 -27 1
-7 16 19 15 17 16 -25 13 -25 -1 -53 1 -64 6 -12 5 -21 3 -27 -6 -6 -10 -2
-16 14 -22 21 -9 22 -9 2 -17 -11 -5 -31 -9 -46 -9 -14 -1 -29 -5 -35 -10 -5
-5 -39 -11 -76 -14 -64 -6 -78 -1 -78 29 0 2 33 4 74 4 71 0 100 10 75 25 -7
5 3 22 28 47 l38 39 -30 -7 c-16 -4 -32 -11 -35 -15 -12 -18 -103 -50 -125
-45 -17 4 -25 1 -28 -11 -4 -17 -4 -17 -12 1 -4 10 -4 21 2 25 6 3 12 11 14
18 9 28 118 139 164 168 52 33 188 75 242 75 17 0 69 -9 115 -20 182 -43 260
-48 403 -29 71 10 200 25 285 34 142 15 169 22 170 47 0 4 -17 11 -37 17 -87
21 -135 31 -156 31 -47 0 -141 47 -196 98 -31 28 -56 30 -41 3 5 -11 10 -22
10 -26 0 -7 -225 191 -254 224 -11 12 -16 24 -13 27 6 6 150 -106 162 -126 4
-6 10 -8 15 -5 4 2 -3 40 -16 82 -12 43 -36 123 -53 178 -20 65 -26 102 -20
106 33 20 246 -33 409 -101 156 -65 280 -104 291 -93 5 5 39 139 75 299 37
159 73 313 80 341 25 92 2 88 508 90 404 1 433 0 351 -12 -49 -8 -177 -19
-282 -24 -106 -6 -225 -16 -265 -22 -94 -15 -203 -45 -216 -61 -15 -19 -60
-161 -78 -248 -8 -41 -19 -79 -24 -85 -5 -6 -11 -33 -13 -60 -2 -28 -24 -133
-49 -235 -25 -102 -62 -257 -82 -345 -20 -88 -41 -173 -46 -190 -4 -16 -12
-50 -15 -75 -4 -24 -11 -51 -15 -60 -5 -8 -21 -69 -35 -135 -36 -161 -54 -206
-93 -230 -17 -11 -31 -28 -32 -37 0 -22 -16 -26 -65 -17 -22 5 -121 22 -220
40 -99 17 -182 33 -185 36 -7 8 110 -6 230 -26 101 -18 150 -13 99 8 -35 15
-550 100 -607 101 -30 0 -20 -16 21 -35 27 -13 28 -14 7 -11 -14 3 -45 8 -70
12 -25 3 -50 12 -56 20 -7 9 -32 13 -80 11 -67 -2 -69 -3 -72 -29 -3 -27 -5
-28 -71 -28 -37 0 -148 -9 -247 -19 -98 -11 -240 -22 -315 -25 -75 -4 -174
-11 -220 -16 -46 -5 -100 -7 -121 -4 -27 5 -50 1 -84 -15 -28 -14 -53 -19 -63
-15 -12 6 -10 9 12 12 15 2 27 8 27 13 0 14 -324 11 -415 -5 -44 -7 -100 -12
-125 -10 -25 1 -53 3 -62 3 -9 1 -19 9 -22 19 -12 36 -41 43 -129 32 -45 -6
-174 -15 -287 -20 -113 -5 -248 -12 -300 -14 -146 -8 -21 10 166 23 82 6 205
20 274 31 69 11 153 23 188 26 34 4 62 10 62 14 0 4 -17 24 -37 45 -24 24 -30
34 -16 26 39 -20 38 -12 -7 34 -60 62 -100 78 -185 78 -85 -1 -172 -22 -257
-63 -34 -16 -54 -28 -44 -25 127 36 179 45 260 45 50 -1 104 -6 119 -13 24
-10 12 -12 -90 -13 -117 0 -119 0 -308 -63 -104 -34 -201 -67 -215 -71 -14 -5
-74 -23 -135 -41 -60 -17 -141 -41 -180 -54 -38 -12 -103 -26 -142 -30 l-73
-7 0 -374 0 -374 1286 -2 c802 -2 1289 1 1295 7 6 5 13 5 21 -3 9 -9 415 -12
1763 -12 l1752 0 6 1142 c4 628 7 1546 7 2040 l0 898 -1138 0 c-626 0 -2003 3
-3060 7 l-1922 6 0 -1170z m3015 636 c-82 -6 -172 -33 -259 -76 -75 -38 -129
-91 -210 -208 -75 -108 -96 -153 -109 -243 -10 -63 -15 -77 -30 -76 -9 0 -33
1 -53 2 l-37 2 7 75 c4 46 19 108 38 156 33 88 117 223 149 240 11 6 45 8 77
5 60 -6 60 -6 -27 20 -13 4 -13 7 0 19 11 10 26 11 71 4 54 -9 61 -7 145 30
114 50 211 71 283 61 25 -3 12 -6 -45 -11z m188 -212 c33 -32 49 -41 159 -91
57 -26 108 -70 108 -93 0 -7 7 -16 15 -20 16 -10 21 -74 12 -157 -4 -37 -2
-53 10 -65 13 -12 13 -16 2 -19 -96 -24 -159 -94 -159 -175 0 -50 13 -68 29
-40 9 17 11 17 25 -2 13 -18 13 -20 -7 -25 -19 -5 -18 -8 16 -29 27 -17 45
-21 67 -16 51 11 60 -5 60 -106 0 -81 -3 -96 -40 -180 -43 -99 -79 -154 -108
-163 -10 -3 -30 -31 -45 -62 -36 -73 -66 -86 -164 -74 -55 7 -92 20 -169 61
-97 51 -115 63 -183 117 -35 28 -98 109 -118 152 -16 35 -56 265 -56 323 1
108 3 114 48 151 23 20 53 40 66 47 34 16 127 131 143 176 19 54 49 103 64
104 23 3 27 5 71 47 24 23 48 42 53 42 17 0 58 44 58 62 0 15 -5 18 -20 13
-14 -4 -20 -2 -20 8 0 8 -9 17 -21 20 -33 9 -12 27 31 27 31 0 47 -7 73 -33z
m-696 -539 c13 -12 23 -25 23 -28 0 -4 16 -24 36 -45 19 -21 33 -43 30 -51 -3
-7 -1 -14 4 -16 5 -2 12 -15 15 -30 6 -23 3 -29 -20 -40 -21 -9 -28 -9 -35 1
-6 11 -13 9 -31 -8 l-24 -22 -19 23 c-10 13 -33 53 -52 90 -33 65 -33 68 -15
78 11 5 27 7 37 3 14 -5 16 -3 11 12 -8 18 0 55 11 55 3 0 16 -10 29 -22z
m211 -740 c108 -90 120 -101 124 -123 4 -27 -30 -31 -93 -10 -28 8 -55 13 -61
9 -5 -4 -28 13 -49 36 -34 37 -39 49 -39 90 0 80 17 80 118 -2z m245 -1248 c4
-14 14 -20 35 -20 17 0 34 -4 37 -10 3 -5 14 -10 23 -10 10 0 35 -9 56 -21 26
-14 49 -19 68 -15 18 3 54 -2 90 -15 33 -11 67 -18 75 -15 7 3 41 -2 74 -10
34 -9 71 -13 84 -10 13 3 39 -1 59 -9 40 -17 58 -13 49 10 -6 18 -3 18 31 5
17 -6 26 -6 26 0 0 6 18 10 41 10 24 0 38 4 34 10 -4 6 7 10 27 10 18 0 48 0
66 0 50 0 61 12 27 27 l-30 14 40 -7 c22 -3 66 -10 98 -14 32 -5 65 -14 72
-20 17 -14 96 -27 264 -41 68 -6 142 -17 165 -24 36 -11 26 -12 -88 -7 -97 4
-127 2 -122 -6 4 -7 16 -12 27 -12 10 0 19 -4 19 -10 0 -5 -7 -10 -15 -10 -18
0 -20 -16 -4 -26 6 -3 15 0 20 7 4 7 11 10 15 6 4 -4 2 -13 -4 -19 -21 -21
-13 -28 28 -28 41 0 49 7 29 27 -6 6 -7 13 -2 16 4 3 16 -6 26 -19 15 -21 16
-24 2 -24 -8 0 -15 -4 -15 -9 0 -5 -17 -16 -37 -25 -51 -22 -71 -35 -120 -78
-24 -21 -47 -38 -52 -38 -6 0 -4 -14 4 -32 11 -28 19 -34 56 -38 50 -6 68 -27
52 -63 -11 -23 -25 -26 -270 -65 -264 -43 -489 -72 -555 -72 -43 0 -51 16 -13
26 31 8 33 24 3 24 -26 0 -227 -30 -418 -61 -119 -20 -128 -20 -187 -4 -67 18
-77 26 -87 67 -4 20 -13 28 -27 28 -12 0 -35 6 -52 14 -18 7 -54 21 -82 31
-59 21 -78 35 -48 35 12 0 24 4 27 9 7 11 -433 92 -964 176 -123 19 -284 58
-355 85 -27 10 -62 21 -77 24 -24 5 -28 11 -28 40 0 18 6 38 13 44 11 9 108
20 467 53 63 5 169 17 235 26 66 8 142 17 169 18 27 2 76 7 110 11 34 4 77 8
96 10 19 2 53 5 75 7 229 25 323 28 394 14 40 -9 79 -13 86 -11 7 3 47 -2 88
-10 95 -20 94 -20 73 3 -11 12 -25 16 -41 13 -14 -2 -33 -1 -42 4 -14 6 -11 9
17 14 55 11 57 11 63 -10z m-1783 -301 c22 -11 229 -57 405 -89 51 -10 217
-54 281 -75 81 -28 78 -37 -11 -30 -185 15 -384 37 -464 51 -144 26 -204 34
-260 34 -60 0 -80 16 -81 63 0 43 33 69 78 61 20 -4 44 -10 52 -15z"/>
<path d="M3145 2780 c6 -10 -52 -16 -127 -13 -42 2 -43 1 -27 -28 7 -14 16
-18 30 -14 21 7 25 -5 7 -23 -14 -14 28 -32 77 -32 54 0 120 75 94 106 -13 16
-64 19 -54 4z"/>
<path d="M3375 2371 c4 -7 -6 -16 -25 -23 -28 -9 -30 -12 -15 -20 12 -7 15
-17 11 -34 -5 -19 -3 -24 14 -24 11 0 20 -3 20 -6 0 -16 -53 -54 -76 -54 -13
0 -24 -4 -24 -10 0 -5 9 -10 19 -10 11 0 23 -4 26 -10 3 -5 17 -10 30 -10 18
0 26 8 35 38 7 20 24 55 37 76 24 37 25 42 12 65 -9 17 -25 27 -43 29 -19 2
-26 0 -21 -7z"/>
<path d="M3880 1170 c-52 -3 -105 -11 -117 -18 -25 -14 -80 -21 -223 -27 -173
-9 -271 -18 -276 -26 -7 -11 27 -11 201 1 77 5 190 12 250 15 139 7 366 25
383 30 6 2 12 11 12 19 0 15 -40 16 -230 6z"/>
<path d="M1935 1050 c20 -22 50 -32 167 -54 148 -28 400 -33 372 -6 -5 4 -79
10 -164 13 -102 3 -174 11 -210 22 -65 19 -161 44 -174 45 -5 0 -1 -9 9 -20z"/>
<path d="M3989 1036 c-2 -2 -96 -9 -209 -15 -246 -14 -270 -17 -270 -36 0 -11
12 -15 40 -15 22 0 59 -4 82 -10 51 -12 326 -52 384 -56 l40 -3 13 59 c7 32
10 63 6 69 -6 10 -77 16 -86 7z"/>
</g>
</svg>
